<svg xmlns="http://www.w3.org/2000/svg" width="400" height="400" viewBox="0 0 400 400">
  <g id="Group_10" data-name="Group 10" transform="translate(-244 -19)">
    <rect id="Rectangle_89" data-name="Rectangle 89" width="400" height="400" transform="translate(644 419) rotate(180)" fill="#ef0"/>
    <path id="Icon_ionic-ios-musical-notes" data-name="Icon ionic-ios-musical-notes" d="M282.595,3.522c-4.178.673-179.57,29.312-183.3,29.91s-7.2,2.692-7.2,5.982V218.949a17.8,17.8,0,0,1-2.133,8.749c-2.756,4.412-7.556,7.627-14.312,9.5-2.934.823-6.934,1.57-11.645,2.468C42.575,243.7,6.75,250.579,6.75,278.4c0,23.255,19.913,33.724,37.07,35.518a51.284,51.284,0,0,0,6.312.523h0c5.956,0,32-2.468,45.515-9.87,9.779-5.384,21.424-16,21.424-35.742v-158.9c0-2.841,2.4-5.309,5.689-5.832L257.882,81.139c4.445-.748,8.534,2.094,8.534,5.832v97.88c0,3.066-.178,6.655-2.222,10.02-2.756,4.412-7.556,7.627-14.4,9.5-2.934.823-7.823,1.57-12.534,2.468-21.424,4.038-57.249,10.842-57.249,38.659,0,25.2,22.58,35.294,37.159,36.116a87.175,87.175,0,0,0,17.246-.673,115.258,115.258,0,0,0,32.447-9.721c15.912-7.7,24.446-20.04,24.446-36.042V9.28C291.218,5.99,287.929,2.625,282.595,3.522Z" transform="translate(280 56)"/>
  </g>
</svg>
