<svg xmlns="http://www.w3.org/2000/svg" viewBox="0 0 112 78.65" width="50px"><defs><style>.cls-1{fill:#ef0;}.cls-2{isolation:isolate;}</style></defs><g id="Layer_2" data-name="Layer 2"><g id="Layer_1-2" data-name="Layer 1"><g id="Rectangle_13" data-name="Rectangle 13"><rect class="cls-1" y="49.65" width="112" height="29"/></g><g id="My_Musical_" data-name="My Musical " class="cls-2"><g class="cls-2"><path d="M31.06,0V18.25H26.61V6.84L22.66,18.25H18.81l-4-11.44V18.25H10.39V0h5.43l5,12.71L25.65,0Z"/><path d="M37.48,3.74,41,12.64l3.25-8.9h4.91L40.08,25.17H35.19l3.41-7.46-6.08-14Z"/></g><g class="cls-2"><path d="M31.06,26V44.25H26.61V32.84L22.66,44.25H18.81l-4-11.44V44.25H10.39V26h5.43l5,12.71L25.65,26Z"/><path d="M48.56,29.74V44.25H44.09V41.63a4.83,4.83,0,0,1-1.86,2,5.36,5.36,0,0,1-2.88.76,5,5,0,0,1-4-1.67,6.66,6.66,0,0,1-1.47-4.57V29.74h4.42v7.88a3.23,3.23,0,0,0,.77,2.3,2.67,2.67,0,0,0,2.06.82,2.72,2.72,0,0,0,2.14-.86,3.49,3.49,0,0,0,.78-2.44v-7.7Z"/><path d="M61.31,30.94a6,6,0,0,1,2.07,3.64H59.22a2.32,2.32,0,0,0-.82-1.39,2.49,2.49,0,0,0-1.6-.51,1.72,1.72,0,0,0-1.14.33,1.12,1.12,0,0,0-.39.92,1.06,1.06,0,0,0,.71,1,11.5,11.5,0,0,0,2.25.68,22.09,22.09,0,0,1,2.73.79,4.52,4.52,0,0,1,1.85,1.32,3.61,3.61,0,0,1,.78,2.44,3.76,3.76,0,0,1-.68,2.21A4.5,4.5,0,0,1,61,43.89a9,9,0,0,1-7.72-.76,5.45,5.45,0,0,1-2.16-3.71h4.29a1.94,1.94,0,0,0,.79,1.43,3,3,0,0,0,1.78.49A1.68,1.68,0,0,0,59.09,41a1.19,1.19,0,0,0,.39-.92A1.1,1.1,0,0,0,58.76,39a12.47,12.47,0,0,0-2.32-.69,19.42,19.42,0,0,1-2.66-.73A4.37,4.37,0,0,1,52,36.31a3.52,3.52,0,0,1-.75-2.38,3.88,3.88,0,0,1,1.48-3.16,6.43,6.43,0,0,1,4.18-1.21A6.65,6.65,0,0,1,61.31,30.94Z"/><path d="M66.37,24a3.1,3.1,0,0,1,3.85,0,2.17,2.17,0,0,1,.72,1.67,2.15,2.15,0,0,1-.72,1.65,3.1,3.1,0,0,1-3.85,0,2.12,2.12,0,0,1-.73-1.65A2.15,2.15,0,0,1,66.37,24Zm4.13,5.75V44.25H66.06V29.74Z"/><path d="M84.83,31.11a6.89,6.89,0,0,1,2.39,4.25H82.51a2.48,2.48,0,0,0-.85-1.46A2.59,2.59,0,0,0,80,33.38a2.39,2.39,0,0,0-1.93.93A4.17,4.17,0,0,0,77.34,37a4.19,4.19,0,0,0,.75,2.69,2.41,2.41,0,0,0,1.93.92,2.54,2.54,0,0,0,1.64-.52,2.42,2.42,0,0,0,.85-1.45h4.71a6.89,6.89,0,0,1-2.39,4.25,7.23,7.23,0,0,1-4.71,1.54,7.87,7.87,0,0,1-3.78-.89A6.46,6.46,0,0,1,73.75,41a8.06,8.06,0,0,1-.93-4,8.06,8.06,0,0,1,.92-4,6.35,6.35,0,0,1,2.59-2.57,7.83,7.83,0,0,1,3.79-.9A7.24,7.24,0,0,1,84.83,31.11Z"/><path d="M97.91,30.32a4.51,4.51,0,0,1,1.76,2V29.74h4.42V44.25H99.67V41.63a4.56,4.56,0,0,1-1.76,2,5.28,5.28,0,0,1-2.86.75,6,6,0,0,1-3.22-.89A6.19,6.19,0,0,1,89.6,41a8.91,8.91,0,0,1-.82-4,8.9,8.9,0,0,1,.82-4,6.25,6.25,0,0,1,2.23-2.57,5.89,5.89,0,0,1,3.22-.9A5.2,5.2,0,0,1,97.91,30.32ZM94.17,34.4A3.66,3.66,0,0,0,93.3,37a3.68,3.68,0,0,0,.87,2.6,3.28,3.28,0,0,0,4.61,0A3.61,3.61,0,0,0,99.67,37a3.61,3.61,0,0,0-.89-2.59,3,3,0,0,0-2.3-.95A3,3,0,0,0,94.17,34.4Z"/><path d="M111.61,25V44.25h-4.45V25Z"/></g></g><g id="Picture" class="cls-2"><g class="cls-2"><path d="M15.84,66.8v6.45H11.39V54.87h7.2a6.94,6.94,0,0,1,5,1.63,5.72,5.72,0,0,1,1.72,4.38,6,6,0,0,1-.77,3A5.34,5.34,0,0,1,22.26,66a8.06,8.06,0,0,1-3.67.76Zm4.94-5.92c0-1.62-.9-2.42-2.68-2.42H15.84v4.78H18.1C19.88,63.24,20.78,62.45,20.78,60.88Z"/><path d="M27.8,53a3.09,3.09,0,0,1,3.84,0,2.15,2.15,0,0,1,.73,1.67,2.12,2.12,0,0,1-.73,1.65,3.09,3.09,0,0,1-3.84,0,2.12,2.12,0,0,1-.73-1.65A2.15,2.15,0,0,1,27.8,53Zm4.13,5.75V73.25H27.48V58.74Z"/><path d="M46.26,60.11a6.89,6.89,0,0,1,2.39,4.25H43.94a2.49,2.49,0,0,0-.86-1.46,2.57,2.57,0,0,0-1.63-.52,2.38,2.38,0,0,0-1.93.93,5.2,5.2,0,0,0,0,5.38,2.4,2.4,0,0,0,1.93.92,2.51,2.51,0,0,0,1.63-.52,2.44,2.44,0,0,0,.86-1.45h4.71a6.89,6.89,0,0,1-2.39,4.25,7.23,7.23,0,0,1-4.71,1.54,7.87,7.87,0,0,1-3.78-.89A6.4,6.4,0,0,1,35.18,70a8.85,8.85,0,0,1,0-7.92,6.38,6.38,0,0,1,2.58-2.57,7.87,7.87,0,0,1,3.8-.9A7.24,7.24,0,0,1,46.26,60.11Z"/><path d="M59.18,69.43v3.82h-2a5.78,5.78,0,0,1-4-1.26,5.36,5.36,0,0,1-1.42-4.17V62.49H49.84V58.74h1.95V55.18h4.45v3.56h2.91v3.75H56.24V67.9a1.63,1.63,0,0,0,.35,1.19,1.66,1.66,0,0,0,1.18.34Z"/><path d="M76.1,58.74V73.25H71.63V70.63a4.7,4.7,0,0,1-1.86,2,5.33,5.33,0,0,1-2.87.76,5,5,0,0,1-4-1.67,6.66,6.66,0,0,1-1.47-4.57V58.74h4.42v7.88a3.22,3.22,0,0,0,.76,2.3,3,3,0,0,0,4.2,0,3.49,3.49,0,0,0,.78-2.44v-7.7Z"/><path d="M85.76,59.37a5.51,5.51,0,0,1,2.85-.78v4.76H87.34a4.43,4.43,0,0,0-2.75.75,3,3,0,0,0-1,2.55v6.6H79.17V58.74h4.45v2.73A6.32,6.32,0,0,1,85.76,59.37Z"/><path d="M104.13,66.8H94.07a3.38,3.38,0,0,0,.83,2.36,2.72,2.72,0,0,0,1.93.71,2.61,2.61,0,0,0,1.63-.49,2.3,2.3,0,0,0,.86-1.28H104a6.17,6.17,0,0,1-1.25,2.75,6.77,6.77,0,0,1-2.44,1.9,8.44,8.44,0,0,1-7.09-.21A6.46,6.46,0,0,1,90.66,70a8.06,8.06,0,0,1-.93-4,8.17,8.17,0,0,1,.92-4,6.41,6.41,0,0,1,2.59-2.57,8.49,8.49,0,0,1,7.59,0,6.17,6.17,0,0,1,2.53,2.48,7.38,7.38,0,0,1,.9,3.68A5.84,5.84,0,0,1,104.13,66.8Zm-5.13-4a2.83,2.83,0,0,0-2-.72,2.87,2.87,0,0,0-2,.73,3.06,3.06,0,0,0-.91,2.13h5.66A2.64,2.64,0,0,0,99,62.79Z"/></g></g></g></g></svg>